<svg width="189" height="119" viewBox="0 0 189 119" fill="none" xmlns="http://www.w3.org/2000/svg">
<circle cx="59.5" cy="59.5" r="59.5" fill="#EA4D72"/>
<circle cx="150" cy="58" r="39" fill="#842D57"/>
<path d="M51.4506 69H54.0826L57.6946 57.52C58.4506 55.224 59.0946 52.984 59.7666 50.604H59.8786C60.5506 52.984 61.1946 55.224 61.9226 57.52L65.5346 69H68.2506L61.3066 48.476H58.3946L51.4506 69ZM55.0906 62.728H64.5546V60.684H55.0906V62.728ZM71.8178 69H74.3658V57.968C75.8778 56.456 76.9698 55.644 78.5098 55.644C80.5258 55.644 81.3938 56.848 81.3938 59.704V69H83.9698V59.368C83.9698 55.504 82.5138 53.432 79.3218 53.432C77.2218 53.432 75.6538 54.58 74.2258 56.008H74.1418L73.8898 53.796H71.8178V69ZM94.8996 69.392C96.7476 69.392 98.3436 68.412 99.5476 67.208H99.6036L99.8276 69H101.928V46.74H99.3796V52.564L99.4916 55.196C98.1756 54.076 96.9996 53.432 95.2356 53.432C91.7636 53.432 88.6276 56.484 88.6276 61.44C88.6276 66.508 91.0916 69.392 94.8996 69.392ZM95.4596 67.236C92.7996 67.236 91.2876 65.052 91.2876 61.412C91.2876 57.94 93.2196 55.56 95.6556 55.56C96.9156 55.56 98.0916 56.008 99.3796 57.184V65.164C98.1196 66.536 96.8876 67.236 95.4596 67.236ZM129.966 69.392C135.118 69.392 138.702 65.248 138.702 58.668C138.702 52.116 135.118 48.112 129.966 48.112C124.786 48.112 121.202 52.088 121.202 58.668C121.202 65.248 124.786 69.392 129.966 69.392ZM129.966 67.096C126.27 67.096 123.862 63.792 123.862 58.668C123.862 53.544 126.27 50.38 129.966 50.38C133.634 50.38 136.07 53.544 136.07 58.668C136.07 63.792 133.634 67.096 129.966 67.096ZM143.776 69H146.324V57.968C147.836 56.456 148.928 55.644 150.468 55.644C152.484 55.644 153.352 56.848 153.352 59.704V69H155.928V59.368C155.928 55.504 154.472 53.432 151.28 53.432C149.18 53.432 147.612 54.58 146.184 56.008H146.1L145.848 53.796H143.776V69ZM167.837 69.392C169.909 69.392 171.505 68.692 172.849 67.824L171.925 66.116C170.805 66.872 169.601 67.348 168.145 67.348C165.233 67.348 163.273 65.248 163.077 62.028H173.325C173.409 61.636 173.437 61.104 173.437 60.572C173.437 56.204 171.253 53.432 167.389 53.432C163.889 53.432 160.557 56.484 160.557 61.44C160.557 66.424 163.777 69.392 167.837 69.392ZM163.049 60.18C163.385 57.184 165.289 55.476 167.417 55.476C169.825 55.476 171.197 57.128 171.197 60.18H163.049Z" fill="white"/>
</svg>
